<svg width="16" height="17" viewBox="0 0 16 17" fill="none" xmlns="http://www.w3.org/2000/svg">
<g clip-path="url(#clip0_27_9649)">
<path d="M9.0079 8.48442L14.6925 2.81506C14.8048 2.68423 14.8635 2.51594 14.8568 2.34383C14.8502 2.17171 14.7786 2.00844 14.6565 1.88665C14.5344 1.76485 14.3707 1.6935 14.1981 1.68685C14.0255 1.6802 13.8568 1.73875 13.7256 1.85078L8.04104 7.52015L2.35647 1.84395C2.22735 1.71517 2.05222 1.64282 1.86961 1.64282C1.687 1.64282 1.51188 1.71517 1.38275 1.84395C1.25363 1.97272 1.18109 2.14738 1.18109 2.3295C1.18109 2.51162 1.25363 2.68628 1.38275 2.81506L7.07418 8.48442L1.38275 14.1538C1.31097 14.2151 1.25267 14.2905 1.21151 14.3754C1.17035 14.4602 1.14723 14.5526 1.14358 14.6468C1.13993 14.741 1.15584 14.8349 1.19032 14.9227C1.22479 15.0105 1.27708 15.0902 1.34391 15.1568C1.41073 15.2235 1.49065 15.2756 1.57865 15.31C1.66664 15.3444 1.76081 15.3602 1.85525 15.3566C1.94968 15.353 2.04235 15.3299 2.12742 15.2888C2.21249 15.2478 2.28814 15.1897 2.34961 15.1181L8.04104 9.44869L13.7256 15.1181C13.8568 15.2301 14.0255 15.2886 14.1981 15.282C14.3707 15.2753 14.5344 15.204 14.6565 15.0822C14.7786 14.9604 14.8502 14.7971 14.8568 14.625C14.8635 14.4529 14.8048 14.2846 14.6925 14.1538L9.0079 8.48442Z" fill="white"/>
</g>
<defs>
<clipPath id="clip0_27_9649">
<rect width="13.7143" height="13.7143" fill="white" transform="translate(1.14307 1.64282)"/>
</clipPath>
</defs>
</svg>
