<svg width="14" height="14" viewBox="0 0 14 14" fill="none" xmlns="http://www.w3.org/2000/svg">
<g clip-path="url(#clip0_3_6723)">
<path d="M13.2991 6.99922V6.99608C13.2991 5.13188 12.4876 3.45773 11.1988 2.30645L11.1925 2.3012C11.1766 2.28405 11.1588 2.26873 11.1395 2.25553L11.1384 2.25501C9.99381 1.24995 8.52184 0.697056 6.99862 0.700024C5.40695 0.700024 3.95387 1.29115 2.84622 2.26656L2.85304 2.26078C2.83969 2.27091 2.82738 2.28234 2.8163 2.2949V2.29543C2.1504 2.88508 1.6174 3.6095 1.25259 4.42069C0.887776 5.23189 0.699488 6.11134 0.700197 7.0008C0.700197 8.86447 1.51073 10.5386 2.79845 11.6904L2.80475 11.6957C2.82142 11.7146 2.84008 11.7317 2.86039 11.7466L2.86144 11.7471C4.00576 12.7507 5.47661 13.3028 6.99862 13.3C8.52774 13.3024 10.0049 12.7452 11.1515 11.7335L11.1447 11.7392C11.8222 11.1503 12.3652 10.4226 12.7371 9.60557C13.1089 8.78852 13.301 7.90112 13.3002 7.00342V6.99975L13.2991 6.99922ZM10.9568 11.0967C10.6447 10.8442 10.3091 10.6224 9.95465 10.4342L9.92052 10.4174C10.2423 9.48972 10.436 8.42034 10.4544 7.30791V7.29951H12.6912C12.6158 8.73868 11.9964 10.0954 10.9584 11.0951L10.9568 11.0967ZM7.29994 10.3066C7.97346 10.3428 8.60289 10.4908 9.18349 10.7318L9.14569 10.7182C8.68058 11.7786 8.02596 12.5073 7.29994 12.6674V10.3066ZM7.29994 9.70601V7.29951H9.85543C9.83516 8.29605 9.66237 9.28361 9.34307 10.2278L9.36355 10.1591C8.71179 9.89117 8.0186 9.73807 7.31464 9.70653L7.30047 9.70601H7.29994ZM7.29994 6.69894V4.29244C8.0229 4.25945 8.73463 4.10118 9.40344 3.82469L9.36197 3.83991C9.65332 4.68985 9.83233 5.66946 9.85543 6.68791V6.69894H7.29994ZM7.29994 3.69187V1.3321C8.02596 1.49221 8.68058 2.21773 9.14569 3.28134C8.60289 3.50708 7.97346 3.6546 7.31517 3.69134L7.29994 3.69187ZM8.79817 1.59196C9.41675 1.79829 9.99528 2.10941 10.5085 2.51172L10.4964 2.50227C10.2638 2.68496 10.0029 2.85716 9.72787 3.00677L9.69847 3.02147C9.47619 2.49688 9.17057 2.01166 8.79344 1.58461L8.79817 1.59039V1.59196ZM6.69834 1.33367V3.69187C6.05081 3.65883 5.41373 3.51501 4.8148 3.26664L4.8526 3.28029C5.31981 2.21983 5.97338 1.49169 6.6994 1.33157L6.69834 1.33367ZM4.30035 3.0199C4.01578 2.86679 3.74464 2.68995 3.48981 2.49125L3.50241 2.5007C4.00066 2.11019 4.5611 1.80636 5.16022 1.60193L5.20012 1.58986C4.83287 2.00535 4.53362 2.47629 4.31347 2.98525L4.30035 3.01937V3.0199ZM6.6994 4.29192V6.69841H4.14391C4.16701 5.66893 4.34602 4.68933 4.65784 3.77062L4.63737 3.83939C5.28887 4.10685 5.98167 4.25976 6.68522 4.29139L6.6994 4.29192ZM6.6994 7.29899V9.70548C5.97644 9.73848 5.26471 9.89675 4.5959 10.1732L4.63737 10.158C4.34602 9.3086 4.16701 8.32847 4.14391 7.31001V7.29899H6.6994ZM6.6994 10.3061V12.6658C5.97338 12.5057 5.31876 11.7802 4.85365 10.7166C5.39645 10.4908 6.02588 10.3439 6.68417 10.3071L6.6994 10.3066V10.3061ZM5.20327 12.406C4.58485 12.2002 4.00634 11.8898 3.49296 11.4883L3.50556 11.4978C3.73812 11.3151 3.99902 11.1429 4.2741 10.9933L4.3035 10.9786C4.52392 11.5034 4.82953 11.9881 5.20799 12.4133L5.20327 12.4081V12.406ZM9.69899 10.978C10.0035 11.1434 10.2644 11.3151 10.5095 11.5067L10.4969 11.4972C9.99868 11.8877 9.43824 12.1916 8.83912 12.396L8.79922 12.4081C9.16647 11.9928 9.46571 11.522 9.68587 11.0132L9.69899 10.9791V10.978ZM12.6912 6.69894H10.4544C10.4383 5.61273 10.2509 4.53588 9.899 3.50813L9.92052 3.58057C10.2914 3.38532 10.6424 3.15465 10.9689 2.8918L10.9563 2.90125C11.9921 3.89715 12.6118 5.24887 12.6902 6.68371L12.6907 6.69841L12.6912 6.69894ZM3.04255 2.90178C3.34493 3.14747 3.68457 3.37268 4.04469 3.5643L4.07881 3.5811C3.75702 4.50873 3.56331 5.57811 3.54493 6.69054V6.69894H1.30757C1.383 5.25977 2.00243 3.90302 3.04045 2.90335L3.04203 2.90178H3.04255ZM1.3081 7.29951H3.54493C3.56103 8.38572 3.74847 9.46257 4.10034 10.4903L4.07881 10.4179C3.68457 10.6273 3.34545 10.8526 3.03048 11.1066L3.04308 11.0972C2.0072 10.1013 1.38756 8.74958 1.30915 7.31474L1.30862 7.30004L1.3081 7.29951Z" fill="white"/>
</g>
<defs>
<clipPath id="clip0_3_6723">
<rect width="12.6" height="12.6" fill="white" transform="translate(0.700195 0.700012)"/>
</clipPath>
</defs>
</svg>
