<svg width="12" height="12" viewBox="0 0 12 12" fill="none" xmlns="http://www.w3.org/2000/svg">
<g clip-path="url(#clip0_3_6709)">
<path d="M6.0081 0C6.82861 0 7.60594 0.156334 8.34008 0.469003C9.07422 0.781671 9.7112 1.20755 10.251 1.74663C10.7908 2.28571 11.2173 2.92183 11.5304 3.65499C11.8435 4.38814 12 5.16981 12 6C12 6.83019 11.8435 7.60647 11.5304 8.32884C11.2173 9.05121 10.7908 9.68733 10.251 10.2372C9.7112 10.7871 9.07422 11.2183 8.34008 11.531C7.60594 11.8437 6.82591 12 6 12C5.17409 12 4.39946 11.8437 3.67611 11.531C2.95277 11.2183 2.31579 10.7871 1.76518 10.2372C1.21457 9.68733 0.782726 9.05121 0.469636 8.32884C0.156545 7.60647 0 6.83019 0 6C0 5.16981 0.156545 4.38814 0.469636 3.65499C0.782726 2.92183 1.21457 2.28571 1.76518 1.74663C2.31579 1.20755 2.95277 0.781671 3.67611 0.469003C4.39946 0.156334 5.17679 0 6.0081 0ZM6.0081 1.89218C6.0081 1.77358 5.97031 1.67655 5.89474 1.60108C5.81916 1.52561 5.7166 1.49865 5.58704 1.52022C5.01484 1.57412 4.48043 1.72507 3.98381 1.97305C3.48718 2.22102 3.05533 2.54987 2.68826 2.95957C2.32119 3.36927 2.03509 3.82749 1.82996 4.33423C1.62483 4.84097 1.51687 5.39623 1.50607 6C1.49528 6.60377 1.60324 7.15364 1.82996 7.6496C2.05668 8.14555 2.34278 8.60916 2.68826 9.04043C3.03374 9.4717 3.46559 9.79515 3.98381 10.0108C4.50202 10.2264 5.03644 10.3827 5.58704 10.4798C5.7058 10.4906 5.80837 10.4582 5.89474 10.3827C5.98111 10.3073 6.01889 10.2156 6.0081 10.1078V1.89218Z" fill="#EEEEEE"/>
</g>
<defs>
<clipPath id="clip0_3_6709">
<rect width="12" height="12" fill="white"/>
</clipPath>
</defs>
</svg>
