<svg width="12" height="12" viewBox="0 0 12 12" fill="none" xmlns="http://www.w3.org/2000/svg">
<g clip-path="url(#clip0_3_6686)">
<path d="M11.3992 5.99936V5.99666C11.3992 4.39878 10.7036 2.96379 9.5989 1.97699L9.5935 1.97249C9.57986 1.95778 9.56462 1.94465 9.54805 1.93334L9.54715 1.93289C8.56605 1.07141 7.30436 0.597502 5.99875 0.600047C4.63446 0.600047 3.38897 1.10672 2.43955 1.94279L2.44539 1.93784C2.43395 1.94652 2.4234 1.95632 2.4139 1.96709V1.96754C1.84313 2.47295 1.38627 3.09388 1.07358 3.78919C0.760881 4.4845 0.599492 5.23832 0.600099 6.00071C0.600099 7.59814 1.29484 9.03313 2.3986 10.0204L2.404 10.0249C2.41829 10.0411 2.43428 10.0557 2.45169 10.0685L2.45259 10.069C3.43344 10.9292 4.69416 11.4024 5.99875 11.4C7.30943 11.402 8.57556 10.9244 9.5584 10.0573L9.55255 10.0622C10.1332 9.55738 10.5987 8.9337 10.9174 8.23337C11.2362 7.53304 11.4008 6.77242 11.4001 6.00296V5.99981L11.3992 5.99936ZM9.39146 9.51146C9.12399 9.29509 8.83634 9.10492 8.53249 8.94358L8.50324 8.92918C8.77906 8.13407 8.9451 7.21746 8.96085 6.26395V6.25675H10.8781C10.8135 7.49033 10.2825 8.65325 9.39281 9.51011L9.39146 9.51146ZM6.25703 8.83424C6.83433 8.86529 7.37383 8.99218 7.87149 9.19872L7.83909 9.18702C7.44043 10.096 6.87932 10.7206 6.25703 10.8578V8.83424ZM6.25703 8.31946V6.25675H8.44744C8.43006 7.11093 8.28196 7.95741 8.00828 8.76674L8.02583 8.70779C7.46718 8.47817 6.87301 8.34695 6.26963 8.31991L6.25748 8.31946H6.25703ZM6.25703 5.74197V3.67926C6.8767 3.65098 7.48676 3.51532 8.06003 3.27833L8.02448 3.29138C8.27421 4.0199 8.42764 4.85956 8.44744 5.73252V5.74197H6.25703ZM6.25703 3.16449V1.14182C6.87932 1.27907 7.44043 1.90094 7.83909 2.8126C7.37383 3.00609 6.83433 3.13254 6.27007 3.16404L6.25703 3.16449ZM7.54122 1.36456C8.07143 1.54142 8.56731 1.80809 9.0072 2.15293L8.99685 2.14483C8.79751 2.30142 8.57388 2.44902 8.3381 2.57726L8.3129 2.58986C8.12238 2.14021 7.86042 1.72431 7.53717 1.35826L7.54122 1.36321V1.36456ZM5.74137 1.14317V3.16449C5.18634 3.13617 4.64027 3.01289 4.1269 2.8L4.1593 2.8117C4.55977 1.90274 5.11997 1.27862 5.74227 1.14137L5.74137 1.14317ZM3.68594 2.58851C3.44203 2.45728 3.20962 2.3057 2.9912 2.13538L3.002 2.14348C3.42907 1.80876 3.90945 1.54834 4.42298 1.37311L4.45718 1.36276C4.14239 1.71889 3.88589 2.12256 3.69719 2.55881L3.68594 2.58806V2.58851ZM5.74227 3.67881V5.74152H3.55185C3.57165 4.85911 3.72509 4.01945 3.99237 3.23198L3.97482 3.29093C4.53325 3.52018 5.12708 3.65125 5.73012 3.67836L5.74227 3.67881ZM5.74227 6.2563V8.31901C5.1226 8.34729 4.51254 8.48295 3.93927 8.71994L3.97482 8.70689C3.72509 7.97883 3.57165 7.13871 3.55185 6.26575V6.2563H5.74227ZM5.74227 8.83379V10.8565C5.11997 10.7192 4.55887 10.0973 4.1602 9.18567C4.62546 8.99218 5.16497 8.86619 5.72922 8.83469L5.74227 8.83424V8.83379ZM4.45988 10.6337C3.9298 10.4574 3.43394 10.1913 2.9939 9.84715L3.0047 9.85524C3.20403 9.69865 3.42766 9.55106 3.66344 9.42281L3.68864 9.41021C3.87757 9.86005 4.13953 10.2756 4.46393 10.64L4.45988 10.6355V10.6337ZM8.31335 9.40976C8.57433 9.55151 8.79796 9.69865 9.0081 9.86289L8.9973 9.8548C8.57022 10.1895 8.08985 10.4499 7.57632 10.6252L7.54212 10.6355C7.8569 10.2795 8.1134 9.87603 8.30211 9.43991L8.31335 9.41066V9.40976ZM10.8781 5.74197H8.96085C8.94706 4.81094 8.78639 3.88792 8.48479 3.00699L8.50324 3.06909C8.82109 2.90172 9.12202 2.70401 9.40181 2.47872L9.39101 2.48681C10.2789 3.34044 10.81 4.49905 10.8772 5.72892L10.8777 5.74152L10.8781 5.74197ZM2.60783 2.48726C2.86701 2.69786 3.15814 2.8909 3.46681 3.05514L3.49606 3.06954C3.22023 3.86465 3.05419 4.78126 3.03845 5.73477V5.74197H1.12071C1.18536 4.5084 1.7163 3.34547 2.60603 2.48861L2.60738 2.48726H2.60783ZM1.12116 6.25675H3.03845C3.05224 7.18778 3.2129 8.1108 3.51451 8.99173L3.49606 8.92963C3.15814 9.10918 2.86746 9.30222 2.59748 9.52001L2.60828 9.51191C1.72039 8.65828 1.18926 7.49967 1.12206 6.2698L1.12161 6.2572L1.12116 6.25675Z" fill="#BBBBBB"/>
</g>
<defs>
<clipPath id="clip0_3_6686">
<rect width="10.8" height="10.8" fill="white" transform="translate(0.600098 0.600037)"/>
</clipPath>
</defs>
</svg>
