<svg width="15" height="8" viewBox="0 0 15 8" fill="none" xmlns="http://www.w3.org/2000/svg">
<mask id="path-1-inside-1_2_6700" fill="white">
<path fill-rule="evenodd" clip-rule="evenodd" d="M7.89445 0L14.3574 0L14.3574 6.32482H13.4341L13.4341 1.54235L7.89445 6.96363L5.12463 4.25299L1.29674 8L0.643066 7.36029L5.12463 2.97538L7.89445 5.68602L12.7813 0.903546L7.89445 0.903546V0Z"/>
</mask>
<path fill-rule="evenodd" clip-rule="evenodd" d="M7.89445 0L14.3574 0L14.3574 6.32482H13.4341L13.4341 1.54235L7.89445 6.96363L5.12463 4.25299L1.29674 8L0.643066 7.36029L5.12463 2.97538L7.89445 5.68602L12.7813 0.903546L7.89445 0.903546V0Z" fill="white"/>
<path d="M7.89445 0V-1.6L6.29445 -1.6V0L7.89445 0ZM14.3574 0L15.9574 0V-1.6L14.3574 -1.6V0ZM14.3574 6.32482V7.92482L15.9574 7.92482V6.32482L14.3574 6.32482ZM13.4341 6.32482H11.8341V7.92482H13.4341V6.32482ZM13.4341 1.54235L15.0341 1.54235V-2.26216L12.315 0.398833L13.4341 1.54235ZM7.89445 6.96363L6.77536 8.10715L7.89445 9.20233L9.01354 8.10715L7.89445 6.96363ZM5.12463 4.25299L6.24372 3.10947L5.12449 2.01416L4.0054 3.10961L5.12463 4.25299ZM1.29674 8L0.177654 9.14352L1.29688 10.2388L2.41597 9.14339L1.29674 8ZM0.643066 7.36029L-0.475905 6.21665L-1.64463 7.36017L-0.476023 8.50381L0.643066 7.36029ZM5.12463 2.97538L6.24372 1.83186L5.12475 0.736791L4.00566 1.83174L5.12463 2.97538ZM7.89445 5.68602L6.77536 6.82954L7.89445 7.92472L9.01354 6.82954L7.89445 5.68602ZM12.7813 0.903546L13.9004 2.04707L16.7038 -0.696454L12.7813 -0.696454V0.903546ZM7.89445 0.903546L6.29445 0.903546V2.50355L7.89445 2.50355V0.903546ZM7.89445 1.6L14.3574 1.6V-1.6L7.89445 -1.6V1.6ZM12.7574 0L12.7574 6.32482L15.9574 6.32482L15.9574 0L12.7574 0ZM14.3574 4.72482H13.4341L13.4341 7.92482H14.3574L14.3574 4.72482ZM15.0341 6.32482L15.0341 1.54235L11.8341 1.54235L11.8341 6.32482L15.0341 6.32482ZM12.315 0.398833L6.77536 5.82011L9.01354 8.10715L14.5532 2.68587L12.315 0.398833ZM9.01354 5.82011L6.24372 3.10947L4.00554 5.39651L6.77536 8.10715L9.01354 5.82011ZM4.0054 3.10961L0.177516 6.85661L2.41597 9.14339L6.24386 5.39638L4.0054 3.10961ZM2.41583 6.85648L1.76216 6.21677L-0.476023 8.50381L0.177654 9.14352L2.41583 6.85648ZM1.76204 8.50392L6.2436 4.11901L4.00566 1.83174L-0.475905 6.21665L1.76204 8.50392ZM4.00554 4.1189L6.77536 6.82954L9.01354 4.5425L6.24372 1.83186L4.00554 4.1189ZM9.01354 6.82954L13.9004 2.04707L11.6622 -0.239974L6.77536 4.5425L9.01354 6.82954ZM12.7813 -0.696454L7.89445 -0.696454V2.50355L12.7813 2.50355V-0.696454ZM9.49445 0.903546V0L6.29445 0V0.903546L9.49445 0.903546Z" fill="white" mask="url(#path-1-inside-1_2_6700)"/>
</svg>
