<svg width="20" height="20" viewBox="0 0 20 20" fill="none" xmlns="http://www.w3.org/2000/svg">
<g clip-path="url(#clip0_2936_22826)">
<path d="M18.2899 16.9379L15.0529 13.7103C16.0973 12.3798 16.664 10.7367 16.6619 9.04518C16.6619 7.53877 16.2152 6.06617 15.3783 4.81363C14.5413 3.56109 13.3518 2.58485 11.9601 2.00837C10.5683 1.43189 9.03686 1.28106 7.55938 1.57494C6.08191 1.86883 4.72476 2.59424 3.65956 3.65944C2.59436 4.72464 1.86895 6.08179 1.57507 7.55926C1.28118 9.03674 1.43201 10.5682 2.00849 11.9599C2.58497 13.3517 3.56121 14.5412 4.81375 15.3781C6.0663 16.2151 7.53889 16.6618 9.04531 16.6618C10.7368 16.6639 12.3799 16.0972 13.7105 15.0528L16.938 18.2898C17.0265 18.3791 17.1318 18.4499 17.2478 18.4982C17.3638 18.5466 17.4883 18.5714 17.614 18.5714C17.7397 18.5714 17.8641 18.5466 17.9801 18.4982C18.0961 18.4499 18.2014 18.3791 18.2899 18.2898C18.3792 18.2013 18.45 18.096 18.4983 17.98C18.5467 17.864 18.5716 17.7395 18.5716 17.6139C18.5716 17.4882 18.5467 17.3637 18.4983 17.2477C18.45 17.1317 18.3792 17.0264 18.2899 16.9379V16.9379ZM3.33286 9.04518C3.33286 7.91537 3.66789 6.81093 4.29558 5.87152C4.92327 4.93211 5.81544 4.19994 6.85925 3.76757C7.90306 3.33521 9.05164 3.22209 10.1597 3.4425C11.2679 3.66292 12.2857 4.20698 13.0846 5.00588C13.8835 5.80478 14.4276 6.82264 14.648 7.93074C14.8684 9.03885 14.7553 10.1874 14.3229 11.2312C13.8906 12.2751 13.1584 13.1672 12.219 13.7949C11.2796 14.4226 10.1751 14.7576 9.04531 14.7576C7.53027 14.7576 6.07729 14.1558 5.006 13.0845C3.93471 12.0132 3.33286 10.5602 3.33286 9.04518Z" fill="#444444"/>
</g>
<defs>
<clipPath id="clip0_2936_22826">
<rect width="17.1429" height="17.1429" fill="white" transform="translate(1.42871 1.42859)"/>
</clipPath>
</defs>
</svg>
