<svg width="16" height="16" viewBox="0 0 16 16" fill="none" xmlns="http://www.w3.org/2000/svg">
<g clip-path="url(#clip0_3_6141)">
<g clip-path="url(#clip1_3_6141)">
<path d="M1.16051 15.7393C0.678222 15.7393 0.28636 15.3855 0.28636 14.9478V1.05218C0.289375 0.617653 0.681236 0.260718 1.16051 0.260718H12.1055C12.5878 0.260718 12.9797 0.614549 12.9797 1.05218V14.9447C12.9797 15.3823 12.5878 15.7362 12.1055 15.7362H1.16051V15.7393Z" fill="#F4F4F4"/>
<path d="M11.9337 0.763531C12.2472 0.763531 12.5004 0.993211 12.5004 1.27565V14.7243C12.5004 15.0068 12.2472 15.2365 11.9337 15.2365H1.33534C1.02185 15.2365 0.768651 15.0068 0.768651 14.7243V1.27565C0.768651 0.993211 1.02185 0.763531 1.33534 0.763531H11.9307M12.1055 0H1.16051C0.521477 0 0 0.471775 0 1.05218V14.9447C0 15.5251 0.521477 15.9969 1.16051 15.9969H12.1055C12.7476 15.9969 13.266 15.5251 13.266 14.9447V1.05218C13.266 0.471775 12.7445 0 12.1055 0Z" fill="#494949"/>
<path d="M10.939 2.6258H2.33308C2.03675 2.6258 1.79653 2.87315 1.79653 3.17827C1.79653 3.4834 2.03675 3.73075 2.33308 3.73075H10.939C11.2353 3.73075 11.4755 3.4834 11.4755 3.17827C11.4755 2.87315 11.2353 2.6258 10.939 2.6258Z" fill="#494949"/>
<path d="M10.939 5.03123H2.33308C2.03675 5.03123 1.79653 5.27858 1.79653 5.58371C1.79653 5.88883 2.03675 6.13618 2.33308 6.13618H10.939C11.2353 6.13618 11.4755 5.88883 11.4755 5.58371C11.4755 5.27858 11.2353 5.03123 10.939 5.03123Z" fill="#494949"/>
<path d="M10.939 12.2693H2.33308C2.03675 12.2693 1.79653 12.5166 1.79653 12.8217C1.79653 13.1268 2.03675 13.3742 2.33308 13.3742H10.939C11.2353 13.3742 11.4755 13.1268 11.4755 12.8217C11.4755 12.5166 11.2353 12.2693 10.939 12.2693Z" fill="#494949"/>
<path d="M5.82969 7.43666H2.33308C2.03675 7.43666 1.79653 7.68401 1.79653 7.98914C1.79653 8.29426 2.03675 8.54161 2.33308 8.54161H5.82969C6.12602 8.54161 6.36624 8.29426 6.36624 7.98914C6.36624 7.68401 6.12602 7.43666 5.82969 7.43666Z" fill="#494949"/>
<path d="M5.82969 9.8452H2.33308C2.03675 9.8452 1.79653 10.0925 1.79653 10.3977C1.79653 10.7028 2.03675 10.9501 2.33308 10.9501H5.82969C6.12602 10.9501 6.36624 10.7028 6.36624 10.3977C6.36624 10.0925 6.12602 9.8452 5.82969 9.8452Z" fill="#494949"/>
<path d="M10.532 11.2016H7.70158C7.18613 11.2016 6.76714 10.7701 6.76714 10.2394V8.14743C6.76714 7.61668 7.18613 7.18526 7.70158 7.18526H10.532C11.0475 7.18526 11.4665 7.61668 11.4665 8.14743V10.2394C11.4665 10.7701 11.0475 11.2016 10.532 11.2016ZM7.70158 7.68807C7.45742 7.68807 7.25546 7.89292 7.25546 8.14743V10.2394C7.25546 10.4908 7.45441 10.6987 7.70158 10.6987H10.532C10.7762 10.6987 10.9781 10.4939 10.9781 10.2394V8.14743C10.9781 7.89602 10.7792 7.68807 10.532 7.68807H7.70158Z" fill="#494949"/>
<path d="M12.9676 0.85354H13.2751C13.9412 0.85354 14.4808 1.32221 14.4808 1.89952V13.7994C14.4808 14.3767 13.9412 14.8454 13.2751 14.8454H12.9676V0.85354Z" fill="#F4F4F4"/>
<path d="M13.2781 15.0751H12.7053V0.62386H13.2781C14.0889 0.62386 14.7491 1.19496 14.7491 1.89952V13.7994C14.7491 14.504 14.0889 15.0751 13.2781 15.0751ZM13.2359 14.6157H13.2781C13.7965 14.6157 14.2185 14.2495 14.2185 13.7994V1.89952C14.2185 1.44947 13.7965 1.08322 13.2781 1.08322H13.2359V14.6157Z" fill="#494949"/>
<path d="M14.4838 1.8902H14.746C15.3127 1.8902 15.7739 2.29059 15.7739 2.78099V12.9179C15.7739 13.4114 15.3127 13.8087 14.746 13.8087H14.4838V1.8902Z" fill="#F4F4F4"/>
<path d="M14.746 14.0043H14.2577V1.69467H14.746C15.4363 1.69467 16 2.18196 16 2.78099V12.9179C16 13.517 15.4363 14.0043 14.746 14.0043ZM14.7099 13.6132H14.746C15.1861 13.6132 15.5479 13.3028 15.5479 12.9179V2.78099C15.5479 2.39922 15.1891 2.08574 14.746 2.08574H14.7099V13.6132Z" fill="#494949"/>
<path d="M13.5041 5.30126H12.4341V10.6801H13.5041V5.30126Z" fill="#F4F4F4"/>
<path d="M12.8651 5.68303C13.0682 5.68303 13.2329 5.51349 13.2329 5.30436C13.2329 5.09524 13.0682 4.9257 12.8651 4.9257C12.662 4.9257 12.4974 5.09524 12.4974 5.30436C12.4974 5.51349 12.662 5.68303 12.8651 5.68303Z" fill="#494949"/>
<path d="M12.8651 11.0588C13.0682 11.0588 13.2329 10.8892 13.2329 10.6801C13.2329 10.471 13.0682 10.3015 12.8651 10.3015C12.662 10.3015 12.4974 10.471 12.4974 10.6801C12.4974 10.8892 12.662 11.0588 12.8651 11.0588Z" fill="#494949"/>
</g>
</g>
<defs>
<clipPath id="clip0_3_6141">
<rect width="16" height="16" fill="white"/>
</clipPath>
<clipPath id="clip1_3_6141">
<rect width="16" height="16" fill="white"/>
</clipPath>
</defs>
</svg>
